<svg width="512" height="512" viewBox="0 0 512 512" fill="none" xmlns="http://www.w3.org/2000/svg">
<path d="M176.563 389.824C148.041 389.824 125.631 384.935 109.333 375.156C93.0343 365.784 84.8852 352.338 84.8852 334.818C84.8852 316.89 90.1821 300.387 100.776 285.312C111.37 269.828 125.02 256.586 141.725 245.585C158.839 234.176 176.563 225.415 194.898 219.304C213.641 212.784 230.958 209.525 246.849 209.525C254.998 209.525 259.073 210.747 259.073 213.192C259.073 216.859 254.795 218.692 246.238 218.692C231.162 218.692 214.66 222.36 196.732 229.694C179.211 237.028 163.524 247.214 149.671 260.253C138.669 270.032 130.317 280.015 124.612 290.201C119.315 299.98 116.667 309.148 116.667 317.704C116.667 330.336 122.575 340.929 134.391 349.486C146.207 357.635 163.932 361.71 187.564 361.71C201.418 361.71 215.475 360.691 229.736 358.654C243.997 356.209 256.832 353.561 268.241 350.708C280.057 347.856 289.021 345.615 295.133 343.985C310.209 339.096 325.285 333.188 340.361 326.261C355.844 319.334 369.697 311.593 381.921 303.036C394.145 294.072 403.109 285.108 408.813 276.144C412.073 271.254 414.314 266.569 415.536 262.087C417.166 257.605 417.981 253.326 417.981 249.252C417.981 237.843 412.888 228.268 402.701 220.526C392.515 212.377 379.476 205.043 363.586 198.523C347.695 192.004 330.785 185.892 312.857 180.188C294.929 174.076 278.02 167.76 262.129 161.241C246.238 154.722 233.199 147.388 223.013 139.238C212.827 130.682 207.733 120.495 207.733 108.679C207.733 95.233 212.623 83.2131 222.402 72.6192C232.588 61.6179 245.423 52.0426 260.906 43.8935C276.797 35.3369 293.707 28.4101 311.635 23.1132C329.563 17.4088 346.676 13.1305 362.974 10.2783C379.273 7.4261 392.719 6 403.313 6C448.133 6 470.543 17.2051 470.543 39.6152C470.543 48.5792 466.876 58.9694 459.542 70.7856C456.282 76.8975 451.596 82.8056 445.484 88.51C439.372 93.8069 434.687 96.4554 431.427 96.4554C428.982 96.4554 427.76 95.0293 427.76 92.1771C427.76 90.9547 430.001 88.51 434.483 84.8429C438.965 80.7683 443.447 75.8788 447.929 70.1744C452.411 64.47 454.652 58.7657 454.652 53.0613C454.652 44.5047 449.763 37.9853 439.984 33.5033C430.612 29.0213 418.185 26.7803 402.701 26.7803C395.367 26.7803 384.773 28.0027 370.92 30.4474C357.066 32.4847 341.99 35.9481 325.692 40.8376C309.394 45.727 293.707 52.2463 278.631 60.3955C250.516 75.8789 236.459 89.1212 236.459 100.123C236.459 108.272 244.404 116.013 260.295 123.348C272.112 128.644 285.761 134.145 301.245 139.85C316.728 145.554 332.415 151.666 348.306 158.185C364.197 164.704 378.865 172.039 392.311 180.188C406.165 188.337 417.166 197.505 425.315 207.691C433.872 217.47 438.15 228.675 438.15 241.306C438.15 258.419 428.779 275.94 410.036 293.868C395.367 307.722 378.254 320.557 358.696 332.373C339.546 344.189 319.173 354.376 297.578 362.932C276.39 371.489 255.406 378.008 234.626 382.49C213.845 387.38 194.491 389.824 176.563 389.824Z" fill="#F93889"/>
<path d="M74.7468 504.83C70.0687 503.661 65.9754 502.491 62.4668 501.322C55.0597 497.423 49.7969 492.94 46.6781 487.872C43.5594 483.194 42 478.126 42 472.668C42 463.702 45.1187 453.956 51.3562 443.43C57.2039 433.294 65.0008 422.768 74.7468 411.853C84.4929 400.158 96.773 388.267 111.587 376.182C126.791 364.097 142.58 352.402 158.953 341.096C175.326 330.181 189.751 320.63 202.226 312.443C208.853 298.798 215.675 284.179 222.692 268.586C230.099 252.992 237.117 237.983 243.744 223.559C250.371 208.745 256.024 195.295 260.702 183.21C265.77 171.125 269.474 161.768 271.813 155.141C265.575 162.548 258.363 171.904 250.176 183.21C241.99 194.125 233.023 205.821 223.277 218.296C213.531 230.381 203.395 241.881 192.869 252.797C182.733 263.712 172.208 272.679 161.292 279.696C150.376 286.323 139.656 289.637 129.13 289.637C113.536 289.637 102.621 285.739 96.3831 277.942C90.5355 269.755 87.6117 260.204 87.6117 249.288C87.6117 241.491 88.5863 233.695 90.5355 225.898C92.8745 218.101 95.7984 210.889 99.3069 204.261C101.646 199.583 105.35 193.346 110.417 185.549C115.485 177.752 121.333 169.76 127.96 161.574C134.588 153.387 141.215 146.565 147.842 141.107C154.86 135.649 161.487 132.92 167.724 132.92C175.131 132.92 180.784 135.649 184.683 141.107C188.581 146.175 188.971 149.683 185.852 151.633C179.615 155.921 171.818 162.548 162.462 171.515C153.495 180.091 144.529 190.032 135.562 201.338C133.223 204.456 130.299 209.329 126.791 215.957C123.672 222.584 120.748 229.796 118.019 237.593C115.291 245 113.926 251.822 113.926 258.06C113.926 260.789 114.316 263.518 115.096 266.246C115.875 268.586 117.24 270.34 119.189 271.509C122.308 273.848 125.816 275.018 129.715 275.018C135.173 275.018 141.215 273.264 147.842 269.755C154.86 266.246 161.487 261.763 167.724 256.305C189.556 235.254 209.048 213.228 226.201 190.227C243.354 167.226 261.482 144.42 280.584 121.81C281.754 117.911 285.067 115.962 290.525 115.962C296.763 115.962 303.195 117.911 309.822 121.81C316.839 125.318 319.763 128.242 318.594 130.581C315.085 138.378 310.407 148.709 304.559 161.574C299.102 174.438 293.059 188.278 286.432 203.092C279.804 217.906 273.177 232.72 266.55 247.534C259.922 261.958 253.88 275.018 248.422 286.713C253.1 284.374 261.482 278.527 273.567 269.17C285.652 259.814 298.907 248.509 313.331 235.254C327.755 221.609 340.815 207.575 352.51 193.151C354.849 190.812 356.603 189.642 357.773 189.642C360.112 189.642 361.282 191.202 361.282 194.32C361.282 197.049 360.112 200.168 357.773 203.677C351.925 211.473 343.739 220.635 333.213 231.161C323.077 241.686 311.966 252.407 299.881 263.323C288.186 273.848 276.686 283.4 265.38 291.976C254.075 300.942 244.329 307.765 236.142 312.443C224.057 338.173 212.361 362.343 201.056 384.954C189.751 407.954 179.42 426.472 170.063 440.506C163.826 450.252 156.224 460.193 147.258 470.329C138.291 480.465 128.545 488.847 118.019 495.474C107.494 502.491 96.3831 506 84.6878 506C83.1285 506 81.5691 505.805 80.0097 505.415C78.4503 505.415 76.696 505.22 74.7468 504.83ZM76.5011 491.966C79.6199 491.966 83.3234 490.991 87.6117 489.042C92.2898 487.093 97.1628 483.974 102.231 479.686C117.045 467.6 129.52 453.371 139.656 436.998C149.792 421.014 158.758 404.056 166.555 386.123C174.742 368.19 182.928 351.037 191.115 334.664C175.911 345.969 158.758 359.224 139.656 374.428C120.553 390.022 103.205 405.42 87.6117 420.624C78.2554 429.981 71.4332 439.142 67.1449 448.108C62.8566 457.464 60.7125 465.651 60.7125 472.668C60.7125 485.533 65.9754 491.966 76.5011 491.966Z" fill="#FFDCC0"/>
<path d="M176.563 389.824C148.041 389.824 125.631 384.935 109.333 375.156C93.0343 365.784 84.8852 352.338 84.8852 334.818C84.8852 316.89 90.1821 300.387 100.776 285.312C111.37 269.828 125.02 256.586 141.725 245.585C158.839 234.176 176.563 225.415 194.898 219.304C213.641 212.784 230.958 209.525 246.849 209.525C254.998 209.525 259.073 210.747 259.073 213.192C259.073 216.859 254.795 218.692 246.238 218.692C231.162 218.692 214.66 222.36 196.732 229.694C179.211 237.028 163.524 247.214 149.671 260.253C138.669 270.032 130.317 280.015 124.612 290.201C119.315 299.98 116.667 309.148 116.667 317.704C116.667 330.336 122.575 340.929 134.391 349.486C146.207 357.635 163.932 361.71 187.564 361.71C201.418 361.71 215.475 360.691 229.736 358.654C243.997 356.209 256.832 353.561 268.241 350.708C280.057 347.856 289.021 345.615 295.133 343.985C310.209 339.096 325.285 333.188 340.361 326.261C355.844 319.334 369.697 311.593 381.921 303.036C394.145 294.072 403.109 285.108 408.813 276.144C412.073 271.254 414.314 266.569 415.536 262.087C417.166 257.605 417.981 253.326 417.981 249.252C417.981 237.843 412.888 228.268 402.701 220.526C392.515 212.377 379.476 205.043 363.586 198.523C347.695 192.004 330.785 185.892 312.857 180.188C294.929 174.076 278.02 167.76 262.129 161.241C246.238 154.722 233.199 147.388 223.013 139.238C212.827 130.682 207.733 120.495 207.733 108.679C207.733 95.233 212.623 83.2131 222.402 72.6192C232.588 61.6179 245.423 52.0426 260.906 43.8935C276.797 35.3369 293.707 28.4101 311.635 23.1132C329.563 17.4088 346.676 13.1305 362.974 10.2783C379.273 7.4261 392.719 6 403.313 6C448.133 6 470.543 17.2051 470.543 39.6152C470.543 48.5792 466.876 58.9694 459.542 70.7856C456.282 76.8975 451.596 82.8056 445.484 88.51C439.372 93.8069 434.687 96.4554 431.427 96.4554C428.982 96.4554 427.76 95.0293 427.76 92.1771C427.76 90.9547 430.001 88.51 434.483 84.8429C438.965 80.7683 443.447 75.8788 447.929 70.1744C452.411 64.47 454.652 58.7657 454.652 53.0613C454.652 44.5047 449.763 37.9853 439.984 33.5033C430.612 29.0213 418.185 26.7803 402.701 26.7803C395.367 26.7803 384.773 28.0027 370.92 30.4474C357.066 32.4847 341.99 35.9481 325.692 40.8376C309.394 45.727 293.707 52.2463 278.631 60.3955C250.516 75.8789 236.459 89.1212 236.459 100.123C236.459 108.272 244.404 116.013 260.295 123.348C272.112 128.644 285.761 134.145 301.245 139.85C316.728 145.554 332.415 151.666 348.306 158.185C364.197 164.704 378.865 172.039 392.311 180.188C406.165 188.337 417.166 197.505 425.315 207.691C433.872 217.47 438.15 228.675 438.15 241.306C438.15 258.419 428.779 275.94 410.036 293.868C395.367 307.722 378.254 320.557 358.696 332.373C339.546 344.189 319.173 354.376 297.578 362.932C276.39 371.489 255.406 378.008 234.626 382.49C213.845 387.38 194.491 389.824 176.563 389.824Z" fill="#F93889"/>
<path fill-rule="evenodd" clip-rule="evenodd" d="M202.226 312.05C208.853 298.406 215.675 283.787 222.692 268.193C230.099 252.599 237.116 237.59 243.744 223.166C250.371 208.352 256.024 194.902 260.702 182.817C265.77 170.732 269.473 161.376 271.812 154.749C265.575 162.156 258.363 171.512 250.176 182.817C241.989 193.733 233.023 205.428 223.277 217.903C213.531 229.988 203.395 241.489 192.869 252.404C182.733 263.32 172.208 272.286 161.292 279.303C150.376 285.931 139.656 289.244 129.13 289.244C113.536 289.244 102.621 285.346 96.383 277.549C90.5354 269.362 87.6116 259.811 87.6116 248.896C87.6116 241.099 88.5862 233.302 90.5354 225.505C92.8745 217.708 95.7983 210.496 99.3069 203.869C101.646 199.191 105.349 192.953 110.417 185.156C115.485 177.359 121.333 169.368 127.96 161.181C134.588 152.994 141.215 146.172 147.842 140.714C154.859 135.256 161.487 132.527 167.724 132.527C175.131 132.527 180.784 135.256 184.683 140.714C188.581 145.782 188.971 149.291 185.852 151.24C179.615 155.528 171.818 162.156 162.461 171.122C153.495 179.699 144.529 189.64 135.562 200.945C133.223 204.064 130.299 208.937 126.791 215.564C123.672 222.191 120.748 229.404 118.019 237.2C115.29 244.607 113.926 251.43 113.926 257.667C113.926 260.396 114.316 263.125 115.096 265.854C115.875 268.193 117.24 269.947 119.189 271.117C122.308 273.456 125.816 274.625 129.715 274.625C135.172 274.625 141.215 272.871 147.842 269.362C154.859 265.854 161.487 261.371 167.724 255.913C189.556 234.861 209.048 212.835 226.201 189.834C243.354 166.834 261.482 144.028 280.584 121.417C281.753 117.519 285.067 115.569 290.525 115.569C296.762 115.569 303.195 117.519 309.822 121.417C316.839 124.926 319.763 127.849 318.594 130.188C315.085 137.985 310.407 148.316 304.559 161.181C299.101 174.046 293.059 187.885 286.432 202.699L266.55 247.141C259.922 261.566 253.88 274.625 248.422 286.321L236.142 312.05C224.057 337.78 212.361 361.95 201.056 384.561C189.751 407.562 179.42 426.079 170.063 440.114L139.656 436.605C149.792 420.622 158.758 403.663 166.555 385.731C174.742 367.798 182.928 350.645 191.115 334.271L202.226 312.05Z" fill="#FFDCC0"/>
<path fill-rule="evenodd" clip-rule="evenodd" d="M84.8852 334.818C84.8852 352.338 93.0343 365.785 109.333 375.156L134.391 349.486C122.575 340.93 116.667 330.336 116.667 317.705C116.667 309.148 119.315 299.98 124.612 290.201C130.317 280.015 138.669 270.032 149.671 260.253C163.524 247.215 179.211 237.028 196.732 229.694C214.66 222.36 231.162 218.693 246.238 218.693C254.795 218.693 259.073 216.859 259.073 213.192C259.073 210.747 254.998 209.525 246.849 209.525C230.958 209.525 213.641 212.785 194.898 219.304C176.563 225.416 158.839 234.176 141.725 245.585C125.02 256.586 111.37 269.828 100.776 285.312C90.1821 300.388 84.8852 316.89 84.8852 334.818Z" fill="#F93889"/>
<path fill-rule="evenodd" clip-rule="evenodd" d="M222.692 268.193L248.422 286.321C253.88 274.625 259.922 261.566 266.55 247.141L286.432 202.699C293.059 187.885 299.102 174.046 304.559 161.181C310.407 148.316 315.085 137.985 318.594 130.188C319.763 127.849 316.839 124.926 309.822 121.417C303.195 117.519 296.762 115.569 290.525 115.569C285.067 115.569 281.754 117.519 280.584 121.417C261.482 144.028 243.354 166.834 226.201 189.834C209.048 212.835 189.556 234.861 167.724 255.913C161.487 261.371 154.86 265.854 147.842 269.362L161.292 279.303C172.208 272.286 182.733 263.32 192.869 252.404C203.395 241.489 213.531 229.988 223.277 217.903C233.023 205.428 241.99 193.733 250.176 182.817C258.363 171.512 265.575 162.156 271.813 154.749C269.473 161.376 265.77 170.732 260.702 182.817C256.024 194.902 250.371 208.352 243.744 223.166C237.116 237.59 230.099 252.599 222.692 268.193Z" fill="#FFDCC0"/>
<path fill-rule="evenodd" clip-rule="evenodd" d="M352.51 193.151C340.815 207.575 327.755 221.609 313.331 235.254L333.213 231.16C343.739 220.635 351.925 211.473 357.773 203.676C360.112 200.168 361.282 197.049 361.282 194.32C361.282 191.201 360.112 189.642 357.773 189.642C356.603 189.642 354.849 190.812 352.51 193.151Z" fill="#FFDCC0"/>
<path fill-rule="evenodd" clip-rule="evenodd" d="M246.849 209.525L246.238 218.693C254.795 218.693 259.073 216.859 259.073 213.192C259.073 210.747 254.998 209.525 246.849 209.525Z" fill="#F93889"/>
</svg>
